<svg xmlns="http://www.w3.org/2000/svg" xmlns:xlink="http://www.w3.org/1999/xlink" width="40" zoomAndPan="magnify" viewBox="0 0 30 30.000001" height="40" preserveAspectRatio="xMidYMid meet" version="1.0"><defs><clipPath id="e7c513ed08"><path d="M 1.550781 0.785156 L 28.15625 0.785156 L 28.15625 27.488281 L 1.550781 27.488281 Z M 1.550781 0.785156 " clip-rule="nonzero"/></clipPath></defs><g clip-path="url(#e7c513ed08)"><path fill="#26282e" d="M 14.90625 0.785156 C 7.527344 0.785156 1.550781 6.789062 1.550781 14.195312 C 1.550781 21.597656 7.527344 27.601562 14.90625 27.601562 C 22.285156 27.601562 28.265625 21.597656 28.265625 14.195312 C 28.265625 6.789062 22.285156 0.785156 14.90625 0.785156 Z M 6.765625 7.78125 L 23.03125 7.78125 C 23.074219 7.78125 23.101562 7.800781 23.117188 7.835938 C 23.132812 7.875 23.125 7.910156 23.09375 7.9375 L 17.625 13.144531 L 17.617188 13.15625 L 15.984375 14.710938 C 15.828125 14.859375 15.648438 14.976562 15.445312 15.054688 C 15.242188 15.136719 15.03125 15.179688 14.816406 15.175781 C 14.597656 15.175781 14.390625 15.132812 14.1875 15.050781 C 13.984375 14.964844 13.804688 14.851562 13.652344 14.695312 L 12.140625 13.226562 C 12.136719 13.226562 12.132812 13.222656 12.132812 13.21875 L 6.703125 7.9375 C 6.671875 7.90625 6.664062 7.875 6.683594 7.835938 C 6.699219 7.800781 6.726562 7.78125 6.765625 7.78125 Z M 5.996094 19.707031 L 5.996094 8.503906 C 5.996094 8.460938 6.015625 8.433594 6.054688 8.417969 C 6.089844 8.402344 6.125 8.410156 6.152344 8.4375 L 11.308594 13.457031 C 11.347656 13.5 11.351562 13.539062 11.316406 13.578125 L 6.15625 19.765625 C 6.132812 19.796875 6.097656 19.808594 6.058594 19.792969 C 6.019531 19.777344 5.996094 19.75 5.996094 19.707031 Z M 23.199219 20.605469 L 6.613281 20.605469 C 6.578125 20.605469 6.546875 20.589844 6.53125 20.554688 C 6.515625 20.519531 6.519531 20.488281 6.546875 20.460938 L 11.84375 14.109375 C 11.882812 14.0625 11.929688 14.058594 11.972656 14.105469 L 13.132812 15.230469 C 13.601562 15.6875 14.160156 15.917969 14.808594 15.921875 L 14.824219 15.921875 C 15.46875 15.921875 16.027344 15.695312 16.496094 15.25 L 17.777344 14.027344 C 17.824219 13.984375 17.867188 13.988281 17.90625 14.035156 L 23.269531 20.460938 C 23.292969 20.488281 23.296875 20.519531 23.28125 20.554688 C 23.265625 20.589844 23.238281 20.605469 23.199219 20.605469 Z M 23.816406 19.707031 C 23.816406 19.75 23.796875 19.777344 23.757812 19.789062 C 23.71875 19.808594 23.683594 19.796875 23.65625 19.765625 L 18.441406 13.511719 C 18.40625 13.46875 18.40625 13.429688 18.449219 13.386719 L 23.664062 8.421875 C 23.695312 8.394531 23.726562 8.386719 23.761719 8.40625 C 23.796875 8.417969 23.816406 8.445312 23.816406 8.484375 Z M 23.816406 19.707031 " fill-opacity="1" fill-rule="nonzero"/></g></svg>