<svg xmlns="http://www.w3.org/2000/svg" xmlns:xlink="http://www.w3.org/1999/xlink" width="40" zoomAndPan="magnify" viewBox="0 0 30 30.000001" height="40" preserveAspectRatio="xMidYMid meet" version="1.0"><defs><clipPath id="4eb08535ec"><path d="M 9.742188 3.46875 L 19.894531 3.46875 L 19.894531 24.707031 L 9.742188 24.707031 Z M 9.742188 3.46875 " clip-rule="nonzero"/></clipPath></defs><g clip-path="url(#4eb08535ec)"><path fill="#26282e" d="M 17.425781 7.011719 L 19.726562 7.011719 L 19.726562 3.503906 L 16.785156 3.503906 L 16.785156 3.519531 C 12.917969 3.660156 12.121094 5.847656 12.054688 8.160156 L 12.042969 8.160156 L 12.042969 10.59375 L 9.742188 10.59375 L 9.742188 14.105469 L 12.042969 14.105469 L 12.042969 24.777344 L 16.179688 24.777344 L 16.179688 14.105469 L 19.140625 14.105469 L 19.726562 10.59375 L 16.179688 10.59375 L 16.179688 8.417969 C 16.179688 7.644531 16.691406 7.011719 17.425781 7.011719 Z M 17.425781 7.011719 " fill-opacity="1" fill-rule="nonzero"/></g></svg>