<svg xmlns="http://www.w3.org/2000/svg" xmlns:xlink="http://www.w3.org/1999/xlink" width="40" zoomAndPan="magnify" viewBox="0 0 30 30.000001" height="40" preserveAspectRatio="xMidYMid meet" version="1.0"><defs><clipPath id="1cc14afdde"><path d="M 1.390625 0 L 28.933594 0 L 28.933594 27.988281 L 1.390625 27.988281 Z M 1.390625 0 " clip-rule="nonzero"/></clipPath></defs><g clip-path="url(#1cc14afdde)"><path fill="#000000" d="M 15.160156 -0.0898438 C 7.554688 -0.0898438 1.390625 6.101562 1.390625 13.738281 C 1.390625 21.375 7.554688 27.566406 15.160156 27.566406 C 22.765625 27.566406 28.933594 21.375 28.933594 13.738281 C 28.933594 6.101562 22.765625 -0.0898438 15.160156 -0.0898438 Z M 3.683594 13.738281 C 3.683594 7.371094 8.820312 2.214844 15.160156 2.214844 C 21.5 2.214844 26.636719 7.371094 26.636719 13.738281 C 26.636719 18.921875 23.226562 23.308594 18.53125 24.757812 C 18.660156 22.425781 18.617188 20.984375 18.402344 20.425781 C 18.171875 19.839844 17.988281 19.597656 17.875 19.453125 C 17.800781 19.359375 17.761719 19.308594 17.761719 19.226562 C 17.761719 19.085938 17.859375 18.988281 18.050781 18.925781 C 19.742188 18.550781 20.875 17.507812 21.453125 15.796875 C 22.25 13.421875 21.113281 11.699219 20.652344 11 C 20.613281 10.941406 20.578125 10.890625 20.550781 10.847656 C 20.191406 10.28125 20.660156 8.894531 21.226562 7.789062 C 19.316406 7.402344 18.585938 8.292969 18.167969 8.804688 C 17.996094 9.011719 17.875 9.160156 17.75 9.128906 C 17.636719 9.101562 17.515625 9.046875 17.371094 8.980469 C 16.957031 8.800781 16.339844 8.527344 15.160156 8.527344 C 13.699219 8.527344 12.730469 9.039062 12.582031 9.117188 C 12.570312 9.125 12.5625 9.128906 12.5625 9.128906 C 11.792969 8.050781 10.703125 7.605469 9.289062 7.789062 C 9.679688 9.351562 9.710938 10.371094 9.378906 10.847656 C 8.882812 11.566406 7.953125 13.238281 8.671875 15.796875 C 9.394531 18.351562 12.027344 18.925781 12.523438 18.925781 L 12.527344 18.925781 C 12.566406 18.933594 12.9375 19.011719 12.824219 19.328125 C 12.804688 19.410156 12.789062 19.523438 12.773438 19.652344 C 12.722656 20.058594 12.652344 20.613281 12.261719 20.796875 C 11.746094 21.035156 10.617188 21.164062 10.144531 20.867188 C 9.984375 20.769531 9.871094 20.5625 9.734375 20.3125 C 9.460938 19.816406 9.097656 19.152344 8.097656 18.839844 C 6.597656 18.375 6.691406 18.988281 7.066406 19.140625 C 7.148438 19.175781 7.257812 19.203125 7.382812 19.242188 C 7.824219 19.367188 8.457031 19.546875 8.785156 20.074219 C 8.878906 20.226562 8.980469 20.394531 9.078125 20.566406 C 9.417969 21.152344 9.78125 21.773438 10.144531 22.015625 C 10.457031 22.222656 11.207031 22.304688 12.394531 22.265625 C 12.34375 23.390625 12.316406 24.269531 12.3125 24.902344 C 7.351562 23.632812 3.683594 19.113281 3.683594 13.738281 Z M 3.683594 13.738281 " fill-opacity="0.85" fill-rule="evenodd"/></g></svg>