<svg xmlns="http://www.w3.org/2000/svg" xmlns:xlink="http://www.w3.org/1999/xlink" width="40" zoomAndPan="magnify" viewBox="0 0 30 30.000001" height="40" preserveAspectRatio="xMidYMid meet" version="1.0"><defs><clipPath id="69a453697e"><path d="M 2.167969 1.097656 L 28.664062 1.097656 L 28.664062 27.804688 L 2.167969 27.804688 Z M 2.167969 1.097656 " clip-rule="nonzero"/></clipPath></defs><g clip-path="url(#69a453697e)"><path fill="#26282e" d="M 25.609375 1.097656 L 5.082031 1.097656 C 3.480469 1.097656 2.167969 2.421875 2.167969 4.035156 L 2.167969 24.722656 C 2.167969 26.339844 3.480469 27.660156 5.082031 27.660156 L 25.609375 27.660156 C 27.210938 27.660156 28.523438 26.339844 28.523438 24.722656 L 28.523438 4.035156 C 28.523438 2.421875 27.210938 1.097656 25.609375 1.097656 Z M 14.839844 23.757812 L 5.058594 23.757812 L 5.058594 16.25 L 14.839844 16.25 Z M 9.9375 14.378906 C 7.082031 14.378906 4.765625 12.042969 4.765625 9.15625 C 4.765625 6.269531 7.082031 3.929688 9.9375 3.929688 C 12.792969 3.929688 15.109375 6.269531 15.109375 9.15625 C 15.109375 12.042969 12.792969 14.378906 9.9375 14.378906 Z M 26.03125 23.734375 L 16.40625 23.734375 L 16.40625 4.089844 L 26.03125 4.089844 Z M 26.03125 23.734375 " fill-opacity="1" fill-rule="nonzero"/></g></svg>