<svg xmlns="http://www.w3.org/2000/svg" xmlns:xlink="http://www.w3.org/1999/xlink" width="40" zoomAndPan="magnify" viewBox="0 0 30 30.000001" height="40" preserveAspectRatio="xMidYMid meet" version="1.0"><defs><clipPath id="d54acd00ef"><path d="M 1.679688 1.15625 L 28.25 1.15625 L 28.25 27.484375 L 1.679688 27.484375 Z M 1.679688 1.15625 " clip-rule="nonzero"/></clipPath></defs><g clip-path="url(#d54acd00ef)"><path fill="#26282e" d="M 20.148438 19.820312 C 20.542969 20.3125 20.066406 20.859375 19.839844 21.066406 C 19.546875 21.34375 19.167969 21.566406 18.707031 21.738281 C 18.472656 21.828125 18.285156 21.878906 18.109375 21.902344 L 18 21.914062 C 17.546875 21.964844 17.035156 21.917969 16.4375 21.789062 C 15.25 21.535156 14.148438 20.824219 13.0625 19.613281 C 12.902344 19.457031 11.664062 18.226562 10.875 16.496094 C 10.078125 14.738281 9.980469 13.023438 9.972656 12.832031 C 9.777344 11.179688 9.976562 9.890625 10.5625 8.847656 C 10.886719 8.277344 11.226562 7.839844 11.589844 7.53125 C 11.71875 7.417969 11.886719 7.3125 12.113281 7.191406 C 12.535156 6.980469 12.949219 6.851562 13.335938 6.808594 C 13.578125 6.789062 14.402344 6.765625 14.507812 7.40625 L 14.617188 8.507812 C 14.664062 8.996094 14.769531 10.230469 14.769531 10.230469 C 14.851562 11.015625 14.757812 11.429688 13.988281 11.535156 C 13.929688 11.539062 13.875 11.53125 13.804688 11.53125 C 13.628906 11.511719 13.472656 11.503906 13.335938 11.503906 L 12.777344 11.507812 L 12.789062 12.0625 C 12.800781 12.683594 13.027344 14.28125 13.5 15.332031 C 13.941406 16.304688 14.957031 17.539062 15.492188 18.027344 L 15.910156 18.402344 L 16.28125 17.984375 C 16.367188 17.886719 16.457031 17.765625 16.511719 17.699219 C 16.605469 17.574219 16.648438 17.511719 16.691406 17.480469 C 16.886719 17.3125 17.070312 17.222656 17.25 17.203125 C 17.605469 17.167969 17.871094 17.425781 18.183594 17.761719 Z M 28.339844 14.394531 C 28.339844 21.699219 22.371094 27.625 15.011719 27.625 C 7.648438 27.625 1.679688 21.699219 1.679688 14.394531 C 1.679688 7.089844 7.648438 1.164062 15.011719 1.164062 C 22.371094 1.164062 28.339844 7.089844 28.339844 14.394531 Z M 26.316406 14.394531 C 26.316406 8.199219 21.253906 3.179688 15.011719 3.179688 C 8.769531 3.179688 3.707031 8.199219 3.707031 14.394531 C 3.707031 20.589844 8.769531 25.613281 15.011719 25.613281 C 21.253906 25.613281 26.316406 20.589844 26.316406 14.394531 Z M 26.316406 14.394531 " fill-opacity="1" fill-rule="nonzero"/></g></svg>